<svg width="40" height="30" viewBox="0 0 40 30" fill="none" xmlns="http://www.w3.org/2000/svg">
<path d="M40 23.7V23.3556C40 22.1 40 21.5222 38.3556 21.5222H33.1C32.8607 21.4968 32.6186 21.5212 32.3892 21.5939C32.1597 21.6665 31.9478 21.7859 31.7667 21.9444C31.3993 22.6753 31.271 23.5033 31.4 24.3111C31.4 24.5111 31.4 24.6778 31.4 24.8222C31.4 25.7667 31.4 26.7111 31.4 27.6333C31.4 28.2444 31.4 28.8556 31.4 29.4667C31.4 29.5727 31.4422 29.6745 31.5172 29.7495C31.5922 29.8245 31.6939 29.8667 31.8 29.8667H39.4111C39.4829 29.8691 39.5538 29.8504 39.615 29.8128C39.6763 29.7753 39.7251 29.7206 39.7556 29.6556V29.5778C39.762 29.541 39.762 29.5034 39.7556 29.4667C40 27.5 40 25.4667 40 23.7ZM32.3556 22.9556C32.3349 22.8864 32.3302 22.8135 32.3417 22.7423C32.3533 22.6712 32.3808 22.6035 32.4222 22.5444C32.4882 22.4797 32.5664 22.4288 32.6522 22.3944C32.738 22.3601 32.8298 22.3431 32.9222 22.3444H38.2222C38.9333 22.3444 39.0889 22.4111 39.1333 23.2333C39.1333 23.6333 39.1333 24.0667 39.1333 24.5C39.1333 25.1444 39.1333 25.7889 39.1333 26.4333C39.1333 27.2778 39.1333 28.1444 39.1333 29H32.2889V27.5556L32.2222 26.1111C32.2222 25.8778 32.2222 25.6111 32.2222 25.3222C32.1033 24.5347 32.1335 23.7319 32.3111 22.9556H32.3556Z" fill="#333333"/>
<path d="M29.5667 17.3333C29.7008 16.4413 29.6593 15.5317 29.4444 14.6556C29.2889 14.2333 29.2778 14.2111 28.9 14.0778H28.7889C28.4294 13.9661 28.0541 13.9136 27.6778 13.9222C27.2667 13.9222 26.8333 13.9222 26.4111 14C25.9889 14.0778 25.6778 14.0667 25.3 14.0667L24.4 14.0111C24.0222 14.0111 23.6222 13.9444 23.2889 13.9444C22.4 13.9444 21.3444 14.1 21.1556 15.3556C21.0405 16.3177 21.0033 17.2875 21.0444 18.2556C21.0444 18.6 21.0444 18.9444 21.0444 19.2889C21.0444 21.3444 21.0444 23.4111 21.0444 25.4667C21.0444 26.8 21.0444 28.1222 21.0444 29.4556C21.0472 29.5608 21.0903 29.6609 21.1647 29.7353C21.2391 29.8097 21.3392 29.8528 21.4444 29.8556H29.0555C29.1289 29.8586 29.2013 29.8389 29.263 29.7991C29.3247 29.7593 29.3725 29.7014 29.4 29.6333V29.5667C29.4062 29.5299 29.4062 29.4923 29.4 29.4556C29.5295 27.2653 29.548 25.0699 29.4555 22.8778C29.4555 21.3889 29.3778 19.8556 29.4555 18.3556C29.5 18.0111 29.5333 17.6778 29.5667 17.3333ZM28.7667 17.9111C28.7667 18.3333 28.6778 18.7 28.6778 19.0222C28.6778 20.2889 28.6778 21.5778 28.7333 22.8333C28.7333 24.8778 28.8333 26.9889 28.7333 29.0444H24.6556C24.4333 29.0444 24.1667 29.0444 23.8889 29.0444C23.5641 29.0796 23.2378 29.0981 22.9111 29.1C22.6518 29.1097 22.3926 29.0759 22.1444 29H21.9222C21.9256 28.9519 21.9256 28.9036 21.9222 28.8556C21.8478 28.4254 21.8478 27.9857 21.9222 27.5556C21.9222 27.3333 21.9222 27.1333 21.9222 26.9667V24.4111C21.9222 22.5778 21.9222 20.7333 21.9222 18.8556C21.9222 18.6667 21.9222 18.4111 21.9222 18.1222C21.8667 17.0111 21.7889 15.3556 22.3778 14.9556C22.793 14.7331 23.2641 14.6366 23.7333 14.6778C24.1778 14.6778 24.6555 14.6778 25.0778 14.7556L26.0111 14.8222C26.2444 14.8222 26.5111 14.8222 26.7778 14.8222C27.0444 14.8222 27.3667 14.8222 27.6444 14.8222C27.8722 14.8172 28.0998 14.8396 28.3222 14.8889C28.4034 14.8979 28.4854 14.8979 28.5667 14.8889C28.6102 14.9019 28.6565 14.9019 28.7 14.8889C28.7 14.8889 28.7667 15.0222 28.8333 15.1444C29.0176 16.0601 28.9948 17.0054 28.7667 17.9111Z" fill="#333333"/>
<path d="M19.0889 18.9667C19.0889 18.3889 19.0889 17.8556 18.4445 17.5222C18.212 17.4134 17.9563 17.3638 17.7 17.3778C17.5 17.3778 17.2889 17.3778 17.1 17.3778H16.6333C16.0111 17.3778 15.3889 17.3778 14.7889 17.3111H13.7222C13.3889 17.3111 13 17.2333 12.6111 17.2333C12.2908 17.1901 11.9648 17.2251 11.661 17.3354C11.3572 17.4457 11.0846 17.628 10.8667 17.8667C10.5897 18.459 10.4931 19.1198 10.5889 19.7667C10.5889 19.9444 10.5889 20.1222 10.5889 20.2667C10.5889 22.2889 10.5889 24.3556 10.5889 26.3444C10.5889 27.3667 10.5889 28.3889 10.5889 29.4111C10.5917 29.5163 10.6348 29.6164 10.7092 29.6908C10.7836 29.7653 10.8837 29.8083 10.9889 29.8111H18.6C18.6827 29.8098 18.7629 29.7822 18.8288 29.7322C18.8948 29.6823 18.9431 29.6126 18.9667 29.5333C18.9781 29.4934 18.9781 29.451 18.9667 29.4111C19.1451 26.0394 19.1451 22.6606 18.9667 19.2889C19.0889 19.1778 19.0889 19.0667 19.0889 18.9667ZM11.4778 18.6333C11.7222 18.2222 12.3667 18.0222 13.4556 18.0222C14.1354 18.0356 14.814 18.0838 15.4889 18.1667C15.9556 18.1667 16.3556 18.2556 16.6 18.2556H17.4445C17.5403 18.243 17.6375 18.243 17.7333 18.2556L18.0889 18.3333H18.2C18.1723 18.3924 18.1579 18.4569 18.1579 18.5222C18.1579 18.5875 18.1723 18.652 18.2 18.7111C18.2636 19.0414 18.2636 19.3808 18.2 19.7111C18.2 19.8778 18.2 20.0333 18.2 20.1667C18.2778 22.7556 18.3667 25.9889 18.2 29.0556H14.3667C13.5778 29.0556 12.8889 29.0556 12.2556 29.1111H11.6778C11.4 29.1111 11.3889 29.1111 11.3778 28.4444V26.4C11.3778 24.9222 11.3778 23.4333 11.3778 21.9556C11.3778 21.7444 11.3778 21.4667 11.3778 21.1444C11.2157 20.311 11.2499 19.4512 11.4778 18.6333Z" fill="#333333"/>
<path d="M8.6889 18.8889C8.6889 17.6778 8.6889 16.4333 8.6889 15.2333C8.6889 13.2778 8.76668 11.2556 8.6889 9.28889V9.06667C8.73244 8.67498 8.63387 8.28067 8.41112 7.95555C8.08642 7.73189 7.69177 7.63322 7.30001 7.67778C6.92223 7.67778 6.53334 7.67778 6.1889 7.75555C5.9784 7.77528 5.76693 7.7827 5.55557 7.77778H1.8889C1.59088 7.75348 1.29117 7.79521 1.01112 7.9C0.544455 8.15555 0.477788 8.51111 0.388899 9.01111C0.074981 11.2448 -0.010646 13.5046 0.133344 15.7556C0.133344 16.5556 0.133344 17.3556 0.133344 18.1333C0.133344 20.2444 0.133344 22.3556 0.133344 24.4667V29.4667C0.136239 29.5738 0.180828 29.6755 0.257614 29.7502C0.334401 29.8249 0.43732 29.8667 0.544455 29.8667H8.26668C8.34284 29.8696 8.41802 29.8486 8.48174 29.8068C8.54546 29.765 8.59457 29.7044 8.62223 29.6333H8.55557H8.64445C8.65205 29.6004 8.65205 29.5662 8.64445 29.5333C8.80363 27.0031 8.82959 24.4663 8.72223 21.9333C8.72223 20.8333 8.70001 19.8667 8.6889 18.8889ZM7.8889 29H1.92223C1.61842 29.0131 1.31679 29.0577 1.02223 29.1333C1.02223 29.0667 1.02223 28.9778 1.02223 28.9111C1.02616 28.8445 1.02616 28.7777 1.02223 28.7111C0.905043 27.7527 0.882713 26.785 0.955566 25.8222C0.955566 25.3444 0.955566 24.8667 0.955566 24.4111V23.5111C0.988899 20 0.966677 16.3667 1.00001 12.7778V12.3333C0.987887 11.4024 1.02498 10.4715 1.11112 9.54444C1.21112 8.67778 1.47779 8.64444 2.22223 8.56667C2.46639 8.5498 2.71141 8.5498 2.95557 8.56667H6.73334C6.94445 8.56667 7.11112 8.56667 7.25557 8.56667H7.50001C7.65557 8.56667 7.75557 8.56667 7.86668 9.02222C7.99015 9.84353 7.99015 10.6787 7.86668 11.5C7.86668 11.8889 7.86668 12.2556 7.86668 12.6111C7.86668 14.2333 7.86668 15.9444 7.86668 17.4889V17.9667C7.86668 19.0778 7.86668 20.1889 7.86668 21.2444C8.00001 23.7667 8.05557 26.4222 7.8889 29Z" fill="#333333"/>
<path d="M23.6556 6.7C23.9267 6.54775 24.2248 6.44964 24.5333 6.41111C25.4923 6.54753 26.3894 6.96511 27.1111 7.61111C29.6556 9.68889 32.2 11.8778 34.8889 14.2778H34.5778C34.1222 14.2778 33.6556 14.1778 33.1778 14.1667C33.0817 14.1826 32.9945 14.2321 32.9315 14.3064C32.8686 14.3807 32.834 14.4749 32.834 14.5722C32.834 14.6696 32.8686 14.7638 32.9315 14.838C32.9945 14.9123 33.0817 14.9618 33.1778 14.9778C33.6222 14.9778 34.0778 15.0444 34.5222 15.0889C35.0227 15.1627 35.5275 15.2035 36.0333 15.2111H36.1222C36.1786 15.21 36.2342 15.1977 36.2857 15.1748C36.3372 15.1519 36.3837 15.1189 36.4222 15.0778C36.462 15.0242 36.4905 14.9631 36.5058 14.8981C36.5211 14.8331 36.5229 14.7657 36.5111 14.7C36.4292 14.2186 36.3141 13.7434 36.1667 13.2778C36.0204 12.8202 35.909 12.3522 35.8333 11.8778C35.8225 11.7943 35.7815 11.7177 35.718 11.6625C35.6545 11.6072 35.573 11.5771 35.4889 11.5778C35.4213 11.5795 35.3548 11.5952 35.2937 11.6238C35.2325 11.6525 35.1779 11.6936 35.1333 11.7444C35.0937 11.7915 35.0651 11.8469 35.0497 11.9066C35.0343 11.9662 35.0325 12.0285 35.0445 12.0889C35.1303 12.5732 35.2453 13.0518 35.3889 13.5222L35.4556 13.7333C32.9222 11.5111 30.5333 9.4 28.1556 7.43333C27.9778 7.28889 27.7778 7.1 27.5778 6.91111C26.9679 6.20086 26.159 5.68995 25.2556 5.44444H25.0445C23.9637 5.57448 22.9204 5.92222 21.9778 6.46666C21.6111 6.64444 21.2667 6.81111 20.9667 6.93333C19.5333 7.51111 18.1 8.04444 16.7222 8.7L16.3 8.9C15.9618 9.104 15.5821 9.22931 15.1889 9.26667C14.9583 9.25972 14.7345 9.18642 14.5445 9.05555C14.1004 8.73166 13.6942 8.35896 13.3333 7.94444C13.1111 7.7 12.9 7.46667 12.6778 7.25555C10.5667 5.17778 8.12223 3.08889 5.00001 0.644443C4.94392 0.602001 4.87856 0.573477 4.8093 0.561217C4.74003 0.548956 4.66885 0.55331 4.6016 0.573919C4.53435 0.594528 4.47295 0.630804 4.42245 0.679765C4.37195 0.728726 4.3338 0.788973 4.31112 0.855554C4.29117 0.924564 4.29331 0.998082 4.31721 1.06582C4.34112 1.13356 4.38561 1.19213 4.44445 1.23333C8.04143 3.98146 11.4354 6.98556 14.6 10.2222C14.6349 10.2612 14.6777 10.2923 14.7257 10.3134C14.7736 10.3345 14.8254 10.3451 14.8778 10.3444C14.9478 10.3538 15.0188 10.3538 15.0889 10.3444C17.0333 9.46667 18.8445 8.7 20.6445 7.97778C21.5333 7.61111 22.4333 7.25556 23.3333 6.86667L23.6556 6.7Z" fill="#333333"/>
<path d="M2.9 9.27777H2.74445C2.16667 9.27777 1.82223 9.61111 1.72223 10.2667C1.58925 11.3069 1.58925 12.3598 1.72223 13.4C1.73583 13.508 1.7886 13.6072 1.87052 13.6789C1.95244 13.7506 2.05782 13.7897 2.16667 13.7889C2.22067 13.7897 2.27425 13.7792 2.32398 13.7582C2.37372 13.7371 2.41853 13.706 2.45556 13.6667C2.4885 13.6291 2.51259 13.5847 2.52605 13.5366C2.53951 13.4885 2.542 13.4381 2.53334 13.3889V13.3222C2.34445 11.5667 2.4 10.5111 2.68889 10.1889C2.71447 10.1613 2.74539 10.1392 2.77977 10.1239C2.81415 10.1086 2.85127 10.1005 2.88889 10.1V10.0444L2.95556 10.1111C3.00544 10.1161 3.05581 10.1101 3.10315 10.0936C3.15049 10.0771 3.19365 10.0504 3.22962 10.0155C3.26559 9.98061 3.29351 9.93826 3.31143 9.89144C3.32934 9.84462 3.33682 9.79445 3.33334 9.74444C3.33794 9.68479 3.33014 9.62484 3.31043 9.56836C3.29073 9.51187 3.25954 9.46008 3.21883 9.41624C3.17812 9.3724 3.12878 9.33747 3.07391 9.31364C3.01904 9.28981 2.95983 9.2776 2.9 9.27777Z" fill="#333333"/>
<path d="M4.01112 9.31112C3.95527 9.30873 3.89956 9.31841 3.84779 9.3395C3.79602 9.36059 3.7494 9.3926 3.71112 9.43334C3.64545 9.51088 3.60994 9.60951 3.61112 9.71112C3.60801 9.76497 3.61614 9.81889 3.635 9.86943C3.65385 9.91997 3.68302 9.96604 3.72064 10.0047C3.75826 10.0434 3.80351 10.0738 3.85352 10.094C3.90353 10.1143 3.9572 10.1239 4.01112 10.1222C4.06632 10.124 4.12117 10.1128 4.17131 10.0897C4.22145 10.0665 4.26552 10.032 4.30001 9.98889C4.38291 9.91898 4.43483 9.81914 4.44445 9.71112C4.44842 9.65464 4.43964 9.59799 4.41876 9.54535C4.39789 9.49272 4.36545 9.44546 4.32384 9.40705C4.28224 9.36865 4.23253 9.34009 4.1784 9.32348C4.12427 9.30688 4.0671 9.30265 4.01112 9.31112Z" fill="#333333"/>
</svg>
