<svg width="40" height="30" viewBox="0 0 40 30" fill="none" xmlns="http://www.w3.org/2000/svg">
<path d="M6.97301 21.4237H1.62893C0.104951 21.4237 0.0914031 21.9182 0.0507637 23.239V23.4489C-0.0317496 25.406 -0.0136625 27.3661 0.104951 29.3213C0.11006 29.3591 0.121512 29.3957 0.138819 29.4297H0.199776L0.159138 29.5109C0.189577 29.5785 0.239166 29.6358 0.301763 29.6755C0.364359 29.7152 0.437221 29.7357 0.511349 29.7345H8.12446C8.23117 29.7311 8.33258 29.6872 8.40807 29.6117C8.48356 29.5362 8.52746 29.4348 8.53085 29.3281C8.53085 28.7185 8.53085 28.1089 8.56472 27.4993C8.56472 26.6526 8.61213 25.8128 8.60536 24.9661C8.60536 24.8036 8.60536 24.6004 8.60536 24.3836C8.646 23.5505 8.69341 22.4126 8.25315 21.8437C8.0848 21.6823 7.88239 21.5608 7.66083 21.4881C7.43927 21.4155 7.20421 21.3934 6.97301 21.4237ZM4.22308 22.2771H4.83944C4.98168 22.2771 5.16455 22.2771 5.37452 22.2771C5.58449 22.2771 6.00444 22.2297 6.33633 22.2297C7.01365 22.2297 7.48101 22.3449 7.69098 22.5887C7.80847 23.106 7.84729 23.638 7.80612 24.1669C7.80612 24.3023 7.80612 24.4107 7.80612 24.4852C7.80612 25.0339 7.80612 25.5893 7.80612 26.1379C7.80612 26.6865 7.80612 27.0861 7.77225 27.5535C7.73839 28.0208 7.77225 28.5153 7.77225 28.9894H0.897417C0.863551 28.2715 0.897417 27.54 0.897417 26.8355C0.897417 26.1311 0.897417 25.4809 0.897417 24.7629C0.897417 24.2956 0.897417 23.8418 0.897417 23.3744C0.931284 22.4532 1.05321 22.3246 1.86599 22.3246H2.7262L4.22308 22.2771Z" fill="#333333"/>
<path d="M16.8145 13.8309C16.4352 13.8309 16.0356 13.8648 15.6563 13.8987C15.277 13.9325 15.0196 13.9529 14.7013 13.9596C14.3829 13.9664 14.1797 13.9596 13.8411 13.8987C13.5024 13.8377 12.9267 13.8174 12.4864 13.8174C11.3959 13.8174 10.7728 14.0748 10.5831 14.6099C10.3722 15.4814 10.3354 16.386 10.4748 17.2717C10.4748 17.6172 10.529 17.9491 10.5357 18.2539C10.5357 19.7575 10.5357 21.2883 10.4951 22.7716C10.3992 24.9678 10.4151 27.1674 10.5425 29.3619C10.5409 29.3958 10.5409 29.4297 10.5425 29.4636V29.5313C10.5704 29.6013 10.6191 29.6609 10.6822 29.7022C10.7452 29.7434 10.8194 29.7641 10.8947 29.7616H18.5078C18.6145 29.7582 18.7159 29.7143 18.7914 29.6388C18.8669 29.5633 18.9108 29.4619 18.9142 29.3552C18.9142 28.0005 18.9142 26.7001 18.9481 25.3725C18.9481 23.3406 18.9955 21.2476 18.9887 19.1886C18.9887 18.8431 18.9887 18.5112 18.9887 18.1455C19.0366 17.1803 19.0026 16.2128 18.8871 15.2533C18.7381 13.9935 17.7086 13.8309 16.8145 13.8309ZM11.3214 15.0298C11.3892 14.9011 11.4163 14.8266 11.4433 14.7724H11.6127C11.6916 14.7781 11.7708 14.7781 11.8497 14.7724C12.0361 14.7474 12.2239 14.7361 12.4119 14.7385C12.6557 14.7385 12.8996 14.7385 13.1502 14.7385C13.4008 14.7385 13.6311 14.7385 13.9223 14.7385C14.1797 14.7385 14.5116 14.7385 14.8774 14.6708C15.2431 14.6031 15.873 14.576 16.3607 14.576C16.8574 14.5327 17.3561 14.6338 17.7966 14.8672C18.3859 15.2804 18.3046 16.8992 18.2437 18.0236C18.2437 18.3148 18.2437 18.5722 18.2437 18.7686C18.2437 20.6177 18.2437 22.46 18.2437 24.3023V26.8491C18.2437 27.0252 18.2437 27.2284 18.2437 27.4451C18.3035 27.8778 18.2898 28.3175 18.203 28.7456V28.854C18.1238 28.8594 18.0461 28.8777 17.9727 28.9081C17.7273 28.9834 17.4706 29.0154 17.2141 29.003C16.8958 29.003 16.5368 29.003 16.232 28.9488C15.9272 28.8946 15.6834 28.9014 15.4666 28.9014H11.4027C11.2672 26.8355 11.3214 24.7223 11.4027 22.6835C11.4027 21.4305 11.4637 20.1368 11.4501 18.8702C11.4501 18.5993 11.4095 18.2268 11.3688 17.8001C11.1385 16.8383 11.0031 15.6123 11.3214 15.0298Z" fill="#333333"/>
<path d="M29.4263 19.6762C29.5126 19.0435 29.4236 18.3992 29.1689 17.8136C28.8844 17.3733 28.2951 17.1363 27.3808 17.1363C26.9947 17.1363 26.6086 17.1701 26.2699 17.204L25.7687 17.2446H25.2336C24.6308 17.2785 24.0009 17.3124 23.3778 17.3124C23.2355 17.3124 23.073 17.3124 22.9036 17.3124C22.708 17.2908 22.5113 17.2795 22.3144 17.2785C22.0832 17.271 21.8528 17.3101 21.6371 17.3937C20.9597 17.6917 20.9597 18.2606 20.9597 18.8567C20.9597 18.965 20.9597 19.0734 20.9597 19.1818C20.7822 22.5661 20.7822 25.9573 20.9597 29.3416C20.9718 29.402 20.9899 29.461 21.0139 29.5177C21.0444 29.5853 21.0939 29.6425 21.1565 29.6822C21.2191 29.722 21.292 29.7425 21.3661 29.7412H28.9521C29.0589 29.7379 29.1603 29.694 29.2358 29.6185C29.3112 29.543 29.3551 29.4416 29.3585 29.3349C29.3585 28.3189 29.3585 27.3029 29.3992 26.2734C29.433 24.282 29.4669 22.2094 29.3992 20.1774C29.4127 20.0623 29.4195 19.8862 29.4263 19.6762ZM21.7048 20.252C21.7048 20.103 21.7048 19.9336 21.7048 19.7575C21.6615 19.3797 21.6821 18.9973 21.7658 18.6264C21.8037 18.5343 21.8177 18.4341 21.8064 18.3351L22.0164 18.1997C22.1672 18.1319 22.3322 18.1017 22.4973 18.1116C22.6801 18.1116 22.8766 18.1116 23.0459 18.1116C23.2152 18.1116 23.3033 18.1116 23.3981 18.1116C23.6555 18.1116 24.0754 18.071 24.5021 18.0236C25.1923 17.9399 25.8864 17.8924 26.5815 17.8813C27.6923 17.8813 28.3358 18.0777 28.5525 18.4841C28.7684 19.2739 28.8122 20.1008 28.6812 20.909C28.6812 21.2273 28.6338 21.5186 28.6338 21.7285C28.6338 23.1441 28.6338 24.5597 28.5999 25.9686V27.9463C28.5999 28.0073 28.5999 28.0886 28.5999 28.1834C28.6487 28.3699 28.6487 28.5658 28.5999 28.7524C28.5525 28.8336 28.5187 28.9014 28.4983 28.9014C28.4106 28.864 28.316 28.8455 28.2206 28.8472H28.0445C27.3095 28.9341 26.5698 28.9748 25.8297 28.9691C25.0779 28.9691 24.3193 28.9352 23.5674 28.9081C22.9646 28.9081 22.3753 28.8607 21.7861 28.854C21.549 26.0363 21.6303 22.9816 21.7048 20.2791V20.252Z" fill="#333333"/>
<path d="M39.7555 9.94988C39.5929 7.82985 39.3152 7.70116 37.2019 7.67407H34.4114C33.7815 7.67407 33.1516 7.67407 32.5284 7.67407H32.3929C31.973 7.67407 31.6682 7.67407 31.4311 8.12788C31.0586 8.8052 31.167 9.92955 31.2686 10.932C31.2686 11.2774 31.3295 11.6093 31.3363 11.8802C31.3363 13.4381 31.3363 15.023 31.3363 16.5538V17.2717C31.3363 18.4503 31.2957 19.6288 31.2686 20.8074C31.2009 23.6183 31.1264 26.524 31.3431 29.3484C31.3415 29.3822 31.3415 29.4162 31.3431 29.45H31.4108L31.3702 29.5313C31.3972 29.6018 31.4458 29.6621 31.509 29.7034C31.5723 29.7448 31.6469 29.7651 31.7224 29.7616H39.3829C39.4896 29.7582 39.591 29.7143 39.6665 29.6388C39.742 29.5633 39.7859 29.4619 39.7893 29.3552C39.7893 27.4045 39.8435 25.3996 39.8909 23.4625C40.0725 18.9588 40.0273 14.4489 39.7555 9.94988ZM32.0882 22.2297C32.0882 21.3628 32.1288 20.489 32.1356 19.6221C32.1356 17.7391 32.1356 15.8155 32.1356 13.9664C32.1356 12.7134 32.1356 11.4671 32.1356 10.2208C32.1356 9.83474 32.1356 9.44189 32.1762 9.05581V8.9068C32.1762 8.5275 32.1762 8.5275 32.4336 8.51395H32.6842C33.2716 8.45597 33.8617 8.42883 34.452 8.43267C35.0684 8.43267 35.6915 8.43268 36.3079 8.47332L37.5067 8.50717C38.8207 8.50717 38.9088 8.92712 38.9901 10.1666C38.9901 10.6746 39.0307 11.1758 39.0375 11.7041C39.0985 14.874 39.0781 18.1048 39.0375 21.2273L38.9833 28.2037C38.9833 28.2647 38.9833 28.3527 38.9833 28.4408C39.015 28.62 39.015 28.8034 38.9833 28.9826C38.9694 29.0313 38.9694 29.083 38.9833 29.1317C38.5918 29.0395 38.1928 28.9829 37.7912 28.9623H32.1627C31.9933 26.7272 32.0407 24.4175 32.0882 22.2297Z" fill="#333333"/>
<path d="M25.1591 10.275C25.21 10.2774 25.2609 10.2683 25.3078 10.2484C25.3547 10.2285 25.3965 10.1982 25.4301 10.1598C28.4211 7.08511 31.6286 4.22854 35.0277 1.61203V1.72041C34.9252 2.1658 34.8595 2.61888 34.8313 3.07505C34.8284 3.1772 34.8648 3.27657 34.9329 3.35275C35.0132 3.42889 35.1203 3.47028 35.2309 3.4679C35.2842 3.47066 35.3375 3.46254 35.3875 3.44404C35.4375 3.42553 35.4833 3.39703 35.5219 3.36027C35.5606 3.32351 35.5914 3.27927 35.6124 3.23023C35.6334 3.1812 35.6442 3.1284 35.6441 3.07505C35.6687 2.63414 35.7344 2.19648 35.8405 1.76781C35.9446 1.32271 36.0103 0.869499 36.0369 0.413167C36.037 0.304752 35.9944 0.200673 35.9183 0.123381C35.8423 0.0460887 35.739 0.0017773 35.6305 0C34.639 0.0474342 33.6589 0.232066 32.7181 0.54863C32.624 0.578421 32.5443 0.641952 32.4943 0.726983C32.4443 0.812014 32.4275 0.912541 32.4471 1.00921C32.4555 1.10088 32.4975 1.1862 32.565 1.24873C32.6326 1.31127 32.7209 1.34658 32.8129 1.34788C32.8555 1.35438 32.8989 1.35438 32.9416 1.34788C33.4786 1.17076 34.029 1.03712 34.5875 0.948258C31.7833 3.15633 29.5482 5.05961 27.5704 6.91547C27.3266 7.14576 27.0895 7.39637 26.8524 7.6402C26.4872 8.03843 26.0957 8.41179 25.6807 8.75779C25.446 8.98535 25.1395 9.12424 24.8137 9.15064C24.459 9.11945 24.115 9.01325 23.8045 8.83907L23.5539 8.73069C22.057 8.05337 20.533 7.43701 19.0226 6.82742C18.6975 6.69872 18.3453 6.53617 17.9795 6.36006C17.0348 5.8292 15.9943 5.49079 14.918 5.3644C14.0307 5.3644 13.2586 6.04172 12.5745 6.71904C12.3984 6.8816 12.229 7.03738 12.0665 7.17285C9.41137 9.35383 6.68854 11.7041 3.98602 14.1561C3.92833 14.2044 3.88696 14.2694 3.86757 14.3421C3.84817 14.4148 3.8517 14.4918 3.87764 14.5625C3.91186 14.6432 3.96811 14.7128 4.03998 14.7631C4.11185 14.8134 4.19642 14.8424 4.28403 14.8469C4.38415 14.8432 4.4799 14.8049 4.55497 14.7385C7.33199 12.2189 10.1361 9.80087 12.8725 7.55893C13.5501 6.923 14.4304 6.54645 15.3583 6.49552C15.7128 6.49708 16.0641 6.56366 16.3946 6.69195L19.1039 7.75535C20.9665 8.51395 22.8766 9.32674 24.9356 10.2411C25.0067 10.2686 25.083 10.2802 25.1591 10.275Z" fill="#333333"/>
<path d="M33.3277 13.5803C33.381 13.5811 33.4339 13.5707 33.4829 13.5497C33.5319 13.5287 33.5759 13.4976 33.6121 13.4584C33.6462 13.4215 33.6713 13.3773 33.6854 13.3291C33.6995 13.2809 33.7022 13.2301 33.6934 13.1807V13.113C33.5105 11.3587 33.5647 10.3089 33.856 9.98374C33.8803 9.95519 33.9104 9.93201 33.9442 9.91569C33.978 9.89936 34.0149 9.89025 34.0524 9.88892V9.82796L34.1201 9.89569C34.1664 9.89569 34.2122 9.88658 34.2549 9.86888C34.2976 9.85118 34.3365 9.82524 34.3692 9.79253C34.4019 9.75983 34.4278 9.721 34.4455 9.67827C34.4632 9.63554 34.4723 9.58973 34.4723 9.54348C34.4817 9.43131 34.4464 9.31996 34.3741 9.23369C34.3018 9.14743 34.1983 9.09323 34.0862 9.0829H33.9237C33.348 9.0829 33.0025 9.41479 32.8942 10.065C32.762 11.1084 32.762 12.1644 32.8942 13.2078C32.9103 13.3113 32.9628 13.4057 33.0422 13.474C33.1217 13.5423 33.2229 13.58 33.3277 13.5803Z" fill="#333333"/>
<path d="M35.1903 9.90923C35.2463 9.91026 35.3018 9.89931 35.3532 9.87711C35.4046 9.85492 35.4507 9.82199 35.4883 9.78054C35.5503 9.70128 35.5837 9.60344 35.5831 9.50284C35.5859 9.44988 35.5778 9.39691 35.5592 9.34724C35.5406 9.29757 35.512 9.25225 35.4752 9.21412C35.4383 9.17599 35.394 9.14586 35.345 9.12561C35.296 9.10537 35.2433 9.09544 35.1903 9.09645C35.1341 9.09402 35.0781 9.10434 35.0265 9.12663C34.9749 9.14891 34.929 9.18259 34.8923 9.22514C34.8269 9.30294 34.7909 9.40122 34.7907 9.50284C34.7878 9.55638 34.7961 9.60994 34.8151 9.66008C34.8341 9.71023 34.8633 9.75588 34.9009 9.79411C34.9385 9.83234 34.9837 9.86232 35.0335 9.88215C35.0833 9.90197 35.1367 9.91119 35.1903 9.90923Z" fill="#333333"/>
</svg>
