<svg width="39" height="40" viewBox="0 0 39 40" fill="none" xmlns="http://www.w3.org/2000/svg">
<g clip-path="url(#clip0_6_29)">
<path d="M36.5009 21.1194H36.101C35.0347 21.0261 33.8818 20.9795 32.4689 20.9795H31.7425H29.5432C27.7705 20.9795 26.0045 21.0195 24.2117 21.0195H19.8799H19.5467H19.1668C19.0613 21.0351 18.9536 21.0276 18.8513 20.9977C18.7489 20.9678 18.6542 20.9161 18.5737 20.8462C18.4559 20.3409 18.4445 19.8166 18.5403 19.3067C18.5403 19.0735 18.5803 18.8669 18.5803 18.7403C18.5337 12.1358 18.4204 6.17122 18.2138 0.506488C18.2124 0.448741 18.1988 0.391944 18.1738 0.339878C18.1477 0.266903 18.0983 0.204539 18.0333 0.162388C17.9683 0.120237 17.8912 0.100646 17.8139 0.106631C12.729 0.353213 8.71037 2.35919 5.15158 6.41781L4.78505 6.83766C3.53215 8.2705 2.23258 9.74333 1.56614 11.5027C0.975533 13.0373 0.529309 14.6237 0.233263 16.2411C-1.09961 24.2384 2.57247 31.9357 9.9033 36.3942C12.7149 38.1104 15.9395 39.0317 19.2334 39.06C19.7333 39.06 20.2331 39.06 20.7263 38.9867C25.5513 38.5468 30.0098 36.9207 32.9621 34.5349C36.1743 31.9357 37.6272 27.6239 38.2269 24.4583C38.2269 24.345 38.3002 24.1784 38.3469 23.9851C38.5602 23.1854 38.8801 21.9858 38.5002 21.5126C38.2803 21.1927 37.2073 21.1461 36.5009 21.1194ZM37.7671 22.9322C37.3784 25.7321 36.4553 28.4312 35.048 30.8828C33.2153 33.975 29.8498 36.2143 25.0515 37.4539C23.1446 37.9943 21.1752 38.2833 19.1935 38.3136C18.1066 38.3221 17.023 38.1945 15.9679 37.9337C13.0675 37.2254 10.3448 35.9253 7.97063 34.115C2.63912 30.0431 0.0466729 23.452 1.07965 16.481C1.33893 15.0515 1.72019 13.6469 2.21926 12.2825C2.83238 10.4764 4.01865 9.09022 5.27156 7.61739L5.40483 7.46411C6.81997 5.6624 8.53301 4.11616 10.4698 2.89234C12.6232 1.71581 15.0217 1.05857 17.4741 0.972993C17.7006 7.45078 17.8206 14.1552 17.8406 21.446C17.8406 21.4985 17.8509 21.5505 17.871 21.599C17.8911 21.6475 17.9206 21.6916 17.9577 21.7287C17.9948 21.7659 18.0389 21.7953 18.0874 21.8154C18.1359 21.8355 18.1879 21.8459 18.2405 21.8459C19.3934 21.8459 20.5463 21.8459 21.6993 21.8459H28.1171C28.7835 21.8459 29.4033 21.8459 30.0431 21.8459C30.8761 21.8459 31.7092 21.8125 32.5489 21.8125H33.3153C34.5082 21.8125 35.4945 21.8859 36.4142 21.9792C36.6822 22.0064 36.9513 22.0198 37.2206 22.0191C37.5338 22.0191 37.7205 22.0191 37.7938 22.1191C37.8671 22.2191 37.8338 22.439 37.7605 22.9322H37.7671Z" fill="white"/>
<path d="M37.1673 10.0832C36.2854 8.04064 34.9605 6.21957 33.2886 4.75171C29.6498 1.23958 24.8915 0.246578 21.5126 0.0266535C21.4463 0.0241884 21.3808 0.0420026 21.3248 0.0777225C21.2689 0.113442 21.2251 0.165373 21.1994 0.226587C21.1606 0.288538 21.1398 0.36008 21.1394 0.433182C21.1394 3.28554 21.1661 6.14012 21.2194 8.99692C21.2727 11.8537 21.2971 14.7416 21.2927 17.6606C21.2945 17.7673 21.3381 17.869 21.4141 17.9438C21.4902 18.0186 21.5926 18.0605 21.6992 18.0605C22.499 18.0205 23.3587 18.0005 24.325 18.0005C25.5046 18.0005 26.6909 18.0005 27.8705 18.0605L30.0964 18.1005H33.3153C35.0785 18.0717 36.8416 18.1585 38.5935 18.3604H38.6335C38.6832 18.3584 38.7319 18.3461 38.7767 18.3243C38.8214 18.3025 38.8611 18.2717 38.8934 18.2338C38.9313 18.1983 38.9607 18.1547 38.9792 18.1062C38.9976 18.0577 39.0048 18.0056 39 17.9539C38.7531 15.2587 38.1364 12.6103 37.1673 10.0832ZM22.6922 0.913018C22.4318 1.17347 22.1849 1.44707 21.9525 1.73275V0.833049C22.1924 0.859706 22.4456 0.879696 22.6922 0.913018ZM22.0791 2.85236C22.5394 2.18957 23.0788 1.58533 23.6852 1.05297C24.245 1.13961 24.8048 1.25957 25.338 1.39286C24.2317 2.58578 23.1054 3.83868 22.0058 5.13824V2.96565C22.0366 2.93239 22.0614 2.89406 22.0791 2.85236ZM27.7638 2.18592C25.7645 4.18524 23.8385 6.28451 22.0125 8.47043V7.47744V6.35116C23.3453 4.75837 24.7982 3.17225 26.2377 1.63277C26.7309 1.79272 27.2573 1.97932 27.7638 2.18592ZM32.0823 4.80502C31.5342 5.46755 30.9201 6.07267 30.2496 6.61107C29.9298 6.89098 29.5832 7.17088 29.3033 7.45745C28.4236 8.29716 27.5172 9.22351 26.5376 10.2831L25.8045 11.0895C25.3047 11.6493 24.7915 12.2292 24.2384 12.7556C23.8785 13.1022 23.4853 13.4221 23.1121 13.7486C22.7389 14.0752 22.4057 14.3418 22.0724 14.6617V13.4821V12.8623C22.9322 11.9959 23.7519 11.0695 24.5516 10.1965C25.218 9.43011 25.9378 8.64371 26.6642 7.89063C27.124 7.41746 27.6239 6.95762 28.1104 6.51777C29.0919 5.70629 29.9654 4.77233 30.7095 3.73872C31.2042 4.06451 31.6783 4.42062 32.129 4.80502H32.0823ZM27.3106 6.1379C26.7508 6.64439 26.171 7.16422 25.6579 7.71736C25.1447 8.27051 24.5383 8.93695 23.9851 9.55007C23.432 10.1632 22.7055 10.9829 22.0391 11.676V10.7497V9.68335C22.0679 9.66931 22.093 9.64878 22.1124 9.62338C24.1494 7.15074 26.3091 4.78189 28.5835 2.5258C29.0807 2.75612 29.5656 3.01193 30.0364 3.29221C29.2545 4.36042 28.3384 5.32356 27.3106 6.1579V6.1379ZM22.8722 17.3474H22.7522C22.6066 17.363 22.4595 17.3401 22.3257 17.2808C21.9991 17.0275 22.0324 16.6143 22.0591 16.1745C22.0721 16.0615 22.0721 15.9475 22.0591 15.8346C22.5623 15.3011 23.1011 14.8023 23.6719 14.3418C24.0451 14.0285 24.4316 13.6753 24.7982 13.3554C25.4113 12.769 25.9911 12.1225 26.5509 11.4961C26.8641 11.1429 27.184 10.783 27.5106 10.4364C28.177 9.73001 28.9301 9.05024 29.6632 8.39713C30.757 7.46556 31.7693 6.44217 32.6888 5.33817C33.0605 5.68174 33.4142 6.04432 33.7484 6.42447L33.8884 6.59108C30.2896 10.4164 26.5776 14.0152 22.8722 17.3474ZM30.8361 13.2355C29.4908 14.662 28.0692 16.0147 26.5776 17.2874H26.2644H24.1251C27.6172 14.1818 31.076 10.803 34.4082 7.24419C34.8199 7.76573 35.194 8.31582 35.5278 8.89029C33.8686 10.2203 32.3012 11.6609 30.8361 13.2022V13.2355ZM31.3359 13.8486C32.7608 12.3157 34.2906 10.8838 35.9144 9.5634C36.1652 10.0727 36.3877 10.5956 36.5808 11.1295C34.5415 13.2888 32.4023 15.3814 30.263 17.3407L27.7438 17.3007C29.0167 16.1811 30.1963 14.9815 31.3359 13.8153V13.8486ZM36.894 11.9759C37.0207 12.3624 37.1406 12.7556 37.2539 13.1688C37.2872 13.2755 37.3472 13.4754 37.4272 13.722L37.4738 13.8819L37.0473 14.3418C36.093 15.4161 35.076 16.433 34.0017 17.3874L31.4226 17.3541C33.3019 15.5947 35.168 13.7886 36.894 11.9426V11.9759ZM38.1669 17.3074C37.8704 17.5155 37.5061 17.6037 37.1473 17.554C36.6941 17.554 36.1809 17.494 35.7278 17.4474L35.148 17.3874C36.061 16.5477 36.9207 15.628 37.7471 14.7216C38.3002 16.601 38.2802 17.1608 38.1669 17.3007V17.3074Z" fill="white"/>
<path d="M6.76436 9.91662C6.66511 9.91662 6.56966 9.95479 6.49779 10.0232C4.36511 12.1897 3.16849 15.1071 3.1656 18.1471C3.16171 18.1992 3.16899 18.2515 3.18695 18.3005C3.20491 18.3495 3.23313 18.3941 3.26973 18.4313C3.30632 18.4686 3.35046 18.4976 3.39916 18.5164C3.44786 18.5352 3.50001 18.5433 3.55212 18.5403C3.60486 18.543 3.65761 18.5351 3.7072 18.5169C3.75679 18.4988 3.80222 18.4709 3.84078 18.4348C3.87934 18.3987 3.91024 18.3552 3.93163 18.307C3.95303 18.2587 3.96448 18.2066 3.96531 18.1538C4.05195 15.9679 4.63175 12.8756 7.09091 10.5964C7.1476 10.5473 7.1872 10.4814 7.20397 10.4084C7.22074 10.3353 7.21384 10.2587 7.18422 10.1898C7.15289 10.1052 7.09513 10.033 7.0195 9.98375C6.94388 9.93454 6.85442 9.911 6.76436 9.91662Z" fill="white"/>
<path d="M7.92395 8.74367C7.86869 8.74129 7.8136 8.75144 7.76281 8.77337C7.71203 8.7953 7.66687 8.82843 7.63072 8.8703C7.5688 8.94776 7.53582 9.04438 7.53743 9.14354C7.53467 9.19565 7.54268 9.24776 7.56096 9.29664C7.57923 9.34551 7.60736 9.39011 7.64363 9.42762C7.6799 9.46514 7.72351 9.49478 7.77174 9.5147C7.81997 9.53462 7.87178 9.54439 7.92395 9.5434C7.97903 9.54441 8.03368 9.53363 8.08426 9.51179C8.13483 9.48995 8.18015 9.45757 8.21719 9.41678C8.27815 9.3388 8.31103 9.24252 8.3105 9.14354C8.31325 9.09143 8.30524 9.03931 8.28697 8.99044C8.26869 8.94156 8.24054 8.89698 8.20427 8.85946C8.168 8.82194 8.12439 8.7923 8.07616 8.77238C8.02793 8.75246 7.97612 8.74269 7.92395 8.74367Z" fill="white"/>
</g>
<defs>
<clipPath id="clip0_6_29">
<rect width="39" height="39.0733" fill="white"/>
</clipPath>
</defs>
</svg>
