<svg width="40" height="40" viewBox="0 0 40 40" fill="none" xmlns="http://www.w3.org/2000/svg">
<path d="M39.9496 12.3678C39.7349 11.6012 38.6464 11.0953 37.7648 10.6583C37.4735 10.5127 37.2052 10.3824 36.9982 10.2597C35.4191 9.29383 33.8476 8.34071 32.2837 7.40037C29.984 5.99752 27.5769 4.66366 25.2695 3.3758L22.7704 1.95762L22.4025 1.74298C21.8239 1.30947 21.1368 1.04418 20.417 0.976395C20.2441 0.977903 20.0718 0.998471 19.9034 1.03772C18.4894 1.4627 17.1424 2.08463 15.9018 2.88519C15.4189 3.16116 14.9513 3.42946 14.499 3.65177C11.0034 5.47624 7.2471 7.63034 3.00022 10.2521L2.70892 10.4207C1.94234 10.873 0.892118 11.4939 0.984108 12.4752C1.0991 13.7094 2.67826 13.8013 3.36818 13.8473H4.01978V13.993C4.01978 14.7596 3.94312 15.5951 4.78637 15.9401C4.78637 17.5959 4.78637 19.2518 4.85536 20.9076C4.85536 22.893 4.92435 24.9475 4.91668 26.9099H4.82469C4.16543 27.1552 4.05811 27.6305 4.05811 28.2208C3.98145 29.455 4.01212 30.7352 4.05811 31.9694C4.05811 32.3373 4.05811 32.7053 4.05811 33.0733H3.91246C2.6016 33.4259 2.6476 34.4684 2.69359 35.5723V35.764C2.51321 35.8065 2.33637 35.8629 2.16465 35.9326C1.97858 36.0183 1.81353 36.1437 1.68109 36.2999C1.54866 36.4562 1.45205 36.6396 1.39806 36.8372C1.15677 37.5949 1.20875 38.4157 1.54372 39.1369C1.87335 39.7042 2.61693 39.7349 3.22253 39.7579H3.46018C3.91246 39.7579 4.35708 39.7962 4.80936 39.7962C5.46862 39.7962 6.12789 39.7962 6.79481 39.7502C7.46174 39.7042 7.95236 39.7502 8.51963 39.7502C9.63884 39.7502 10.7657 39.7502 11.8926 39.6965C13.2954 39.6965 14.706 39.6429 16.1165 39.6429C17.7493 39.6429 19.1828 39.6429 20.463 39.7579H31.4635C33.4413 39.7579 35.4114 39.7579 37.3815 39.7579C37.7499 39.784 38.1192 39.721 38.4581 39.5742C38.7971 39.4275 39.0956 39.2012 39.3286 38.9146C39.5194 38.6061 39.6324 38.2558 39.6578 37.8939C39.6831 37.532 39.6202 37.1693 39.4743 36.8372C39.3822 36.5728 39.2216 36.3377 39.0087 36.1558C38.7959 35.974 38.5386 35.852 38.2631 35.8023V35.3807C38.2631 34.5528 38.2631 33.6942 37.4965 33.2572C37.3055 33.152 37.0982 33.0794 36.8832 33.0426C36.8832 32.598 36.8832 32.1534 36.8832 31.7087C36.8832 30.5512 36.8832 29.3477 36.8832 28.1748C36.9034 27.8972 36.8415 27.6198 36.7052 27.3772C36.5689 27.1346 36.3642 26.9374 36.1166 26.8103C36.0477 24.2192 35.994 21.6358 35.948 19.0448V15.8328C36.1644 15.7733 36.3623 15.6599 36.5229 15.5032C36.8125 15.0739 36.9251 14.5493 36.8372 14.039V13.7937C37.1132 13.7937 37.3968 13.7937 37.6805 13.7937C38.1191 13.8053 38.5573 13.7589 38.9837 13.6557C39.3394 13.582 39.6527 13.3731 39.8576 13.0731C39.9761 12.858 40.0089 12.6061 39.9496 12.3678ZM37.7801 12.8431C37.4521 12.9538 37.1065 13.0032 36.7606 12.9888C36.3926 12.9888 35.994 12.9888 35.649 12.9274C35.3041 12.8661 35.0204 12.8738 34.7598 12.8738C32.9737 12.8738 31.1952 12.8278 29.3937 12.7895C27.5922 12.7511 25.7141 12.7051 23.8743 12.7051H23.284C20.1257 12.7051 16.952 12.7665 13.8857 12.7665L3.40652 12.9274H3.27619C2.85457 12.9274 2.37162 12.8738 2.27197 12.6438C2.17231 12.4138 2.39462 11.9999 2.90823 11.4019C3.08684 11.2407 3.29164 11.111 3.51384 11.0186L3.80514 10.873L5.82125 9.70012C7.25476 8.84155 8.68828 7.99064 10.1371 7.15506C12.8738 5.58356 15.5875 4.14239 18.1939 2.88519L18.7612 2.57855C19.2775 2.2258 19.8723 2.00473 20.4937 1.93462C20.5879 1.9233 20.6831 1.9233 20.7773 1.93462C21.231 2.06254 21.6572 2.27304 22.0345 2.55556C22.2108 2.67055 22.3795 2.78553 22.5404 2.86986C23.1001 3.18416 23.6673 3.48312 24.2423 3.78209C24.9399 4.14239 25.6681 4.54868 26.358 4.9243C29.2174 6.57246 31.9771 8.27427 34.3305 9.70012L37.3968 11.6089L37.5272 11.6856C37.9181 11.9232 38.2937 12.1762 38.2937 12.3832C38.2937 12.5901 38.1098 12.6898 37.7418 12.8431H37.7801ZM37.3585 35.764H37.0979C36.6533 35.764 36.201 35.764 35.7717 35.8406C35.3424 35.9173 35.0588 35.8943 34.7675 35.8943H34.6295C33.5563 35.8943 32.3987 35.833 31.0879 35.833C29.777 35.833 28.2745 35.833 26.864 35.879H22.7858C21.1376 35.879 19.4971 35.879 17.849 35.8176C16.2008 35.7563 14.5526 35.7563 12.9122 35.7563H9.73083C8.7956 35.7563 7.86803 35.7563 6.9328 35.7563H6.12022C5.6526 35.7563 5.13899 35.7563 4.62538 35.7563C4.24209 35.7563 3.90479 35.7563 3.59816 35.7563C3.59816 34.7444 3.76681 34.2768 4.82469 34.0621C5.20397 33.9933 5.58917 33.9625 5.97457 33.9702H9.4242C10.5587 33.9702 11.7239 33.9702 12.8278 34.0162L14.66 34.0545C17.826 34.1158 21.0916 34.1771 24.3113 34.2001H24.7712C25.9901 34.2001 27.2013 34.2001 28.4125 34.1465C29.455 34.1465 30.4899 34.0928 31.5248 34.0851H34.3918C34.6065 34.0851 34.8594 34.0851 35.1584 34.0392C35.4574 33.9932 35.7717 33.9778 36.063 33.9778C36.2702 33.9708 36.4772 33.9967 36.6763 34.0545C37.3815 34.2691 37.3815 34.9821 37.3815 35.672L37.3585 35.764ZM25.5991 38.9683L20.486 38.9223C19.5738 38.8686 18.5772 38.8456 17.4197 38.8456C16.2621 38.8456 15.3422 38.8456 14.3073 38.8456C13.2724 38.8456 12.2299 38.8916 11.1873 38.8916H10.0528C9.37054 38.8916 8.68061 38.8916 7.99069 38.8916C6.97113 38.8916 5.95924 38.8916 4.92435 38.9376H3.72848C2.9619 38.9376 2.42529 38.7536 2.30263 37.8184C2.20298 37.0518 2.19531 36.9752 2.99256 36.7989C3.65034 36.6822 4.3177 36.6283 4.98568 36.6379H6.41919C7.04779 36.6379 7.68405 36.6379 8.31265 36.6379H11.9309C13.3568 36.6379 14.7749 36.6379 16.2008 36.7069C17.6266 36.7759 19.0448 36.7682 20.4707 36.7682H21.6282C24.9322 36.7222 28.4508 36.6992 32.7053 36.6915H37.3508C37.7585 36.6369 38.1713 36.7442 38.5007 36.9905C38.5879 37.1063 38.6495 37.2393 38.6812 37.3808C38.7129 37.5222 38.7141 37.6688 38.6847 37.8107C38.6004 38.6923 38.0638 38.7766 37.1515 38.815C35.3271 38.884 33.3953 38.9146 31.0725 38.9146C29.2634 38.9683 27.4313 38.9453 25.5991 38.93V38.9683ZM4.90135 29.11C4.90135 28.6041 4.84002 28.0751 5.28464 27.8375C5.447 27.781 5.61903 27.7575 5.79059 27.7685H6.58017L8.17467 27.7148C8.41346 27.7059 8.65151 27.6829 8.88759 27.6458C9.27333 27.5842 9.66244 27.5458 10.0528 27.5309C10.24 27.5207 10.4274 27.5467 10.6047 27.6075C11.0877 27.8222 11.0417 28.5198 11.0034 29.087C11.0034 29.225 11.0034 29.3553 11.0034 29.4703C11.0034 30.3366 11.0034 31.2105 11.0034 32.0844V32.9966H10.0528C9.56985 32.9966 9.04857 32.9966 8.51963 32.9429C7.99069 32.8893 7.21643 32.8893 6.55717 32.8893C6.04508 32.886 5.53322 32.9116 5.024 32.9659C5.024 31.8391 5.024 30.7198 5.024 29.593V29.455C4.94735 29.3247 4.93968 29.202 4.93202 29.0717L4.90135 29.11ZM11.8006 14.1003V13.763L16.5304 13.717C16.5304 13.809 16.5304 13.9087 16.5304 14.0083C16.5304 14.7749 16.4461 15.6335 17.297 15.9631C17.297 17.6189 17.3175 19.2722 17.3583 20.9229C17.3583 22.9084 17.435 24.9628 17.4273 26.9253H17.3277C16.6761 27.1706 16.5611 27.6458 16.5611 28.2361C16.4844 29.478 16.5151 30.7582 16.5611 31.9924V33.0656C15.0279 33.0656 13.4948 33.0043 11.9616 32.9889C11.9616 32.5673 11.9616 32.1534 11.9616 31.7317C11.9616 30.5742 11.9616 29.3707 11.9616 28.1978C11.9853 27.9243 11.9291 27.6497 11.7999 27.4075C11.6706 27.1653 11.4738 26.9658 11.2333 26.8333C11.1643 24.2422 11.1107 21.6435 11.0647 19.0524L10.9344 15.8328C11.1508 15.7733 11.3486 15.6599 11.5093 15.5032C11.7931 15.08 11.9054 14.5649 11.8236 14.062L11.8006 14.1003ZM24.3113 14.1003C24.3113 13.97 24.3113 13.8473 24.3113 13.7324C25.8444 13.7324 27.3776 13.7451 28.9108 13.7707H29.0717C29.0717 13.8627 29.0717 13.9547 29.0717 14.0466C29.0717 14.8132 28.9951 15.6488 29.8383 15.9938C29.8383 17.6496 29.8767 19.3054 29.9073 20.9612C29.9073 22.9467 29.9763 25.0011 29.9686 26.9636H29.8767C29.2174 27.2089 29.1101 27.6842 29.1101 28.2744C29.0334 29.5163 29.0641 30.7888 29.1101 32.0307C29.1101 32.3987 29.1101 32.7973 29.1101 33.1652H28.4508C27.2396 33.1652 26.0284 33.2189 24.8172 33.2189H24.4339C24.4339 32.7283 24.4339 32.2377 24.4339 31.7471C24.4339 30.5895 24.4339 29.3937 24.4339 28.2284C24.4521 27.9512 24.3894 27.6746 24.2533 27.4323C24.1172 27.1901 23.9136 26.9926 23.6673 26.8639C23.5907 24.2882 23.5447 21.7125 23.4987 19.1444L23.445 15.8328C23.6607 15.7715 23.8581 15.6584 24.02 15.5032C24.303 15.0797 24.4153 14.5648 24.3342 14.062L24.3113 14.1003ZM17.412 29.11C17.412 28.6041 17.343 28.0751 17.7953 27.8375C17.955 27.781 18.1245 27.7575 18.2936 27.7685H19.0832L20.6776 27.7148C20.9164 27.7059 21.1545 27.6829 21.3906 27.6458C21.7665 27.5908 22.1453 27.5575 22.5251 27.5462C22.7148 27.5356 22.9048 27.5616 23.0847 27.6228C23.56 27.8375 23.514 28.5351 23.4833 29.1024C23.4833 29.2403 23.4833 29.3707 23.4833 29.4856V33.2189C21.4749 33.2189 19.4664 33.1576 17.458 33.1193C17.458 32.046 17.458 30.9728 17.458 29.8996V29.4626C17.458 29.3247 17.4503 29.202 17.4427 29.0717L17.412 29.11ZM22.7168 26.7336C22.4638 26.7336 22.1878 26.7336 21.9502 26.7336C21.7125 26.7336 21.4212 26.7336 21.1836 26.7336H20.1794C19.8344 26.7336 19.4664 26.7336 19.1061 26.7336C18.7459 26.7336 18.6079 26.7336 18.3396 26.7336C18.3396 24.7865 18.3396 22.8087 18.2706 20.8999C18.2706 19.3131 18.2169 17.7263 18.2092 16.1394C18.4263 16.1513 18.6438 16.1513 18.8608 16.1394C19.3668 16.1394 19.8957 16.1394 20.394 16.0628C20.7083 16.0628 20.9996 16.0168 21.2603 16.0091H21.5516C21.8352 16.0091 22.1648 16.0091 22.5021 16.0091L22.5634 19.0218C22.6094 21.5745 22.6554 24.1349 22.7244 26.6876L22.7168 26.7336ZM23.0847 14.9589C22.6831 15.1183 22.251 15.1864 21.8199 15.1582H18.6615C18.1326 15.1582 17.8413 15.0739 17.6803 14.9052C17.5193 14.7366 17.4657 14.3303 17.4733 13.717C19.0065 13.717 20.6163 13.717 22.1878 13.717H23.4067V13.9163C23.4067 14.2996 23.4067 14.7519 23.0847 14.9589ZM5.69093 16.1548C5.91053 16.1664 6.1306 16.1664 6.35019 16.1548C6.85614 16.1548 7.38508 16.1548 7.88336 16.0781C8.19766 16.0781 8.49663 16.0321 8.75727 16.0244H9.10223C9.3782 16.0244 9.7155 16.0244 10.0528 16.0244L10.1065 19.0908C10.1525 21.646 10.2087 24.2013 10.2751 26.7566C10.0221 26.7566 9.75383 26.7566 9.50852 26.7566C9.26322 26.7566 8.97958 26.7566 8.74194 26.7566H7.63039C7.27776 26.7566 6.91747 26.7566 6.55717 26.7566C6.19688 26.7566 6.05889 26.7566 5.79059 26.7566C5.79059 24.8095 5.75226 22.824 5.7216 20.9076C5.71649 19.3233 5.70627 17.739 5.69093 16.1548ZM30.7046 16.1548C30.9242 16.1664 31.1442 16.1664 31.3638 16.1548C31.8621 16.1548 32.3987 16.1548 32.897 16.0781C33.2113 16.0781 33.5103 16.0321 33.7709 16.0244H34.1159C34.3918 16.0244 34.7291 16.0244 35.0588 16.0244L35.1201 19.0908C35.1661 21.646 35.2223 24.2013 35.2887 26.7566C35.0358 26.7566 34.7675 26.7566 34.5221 26.7566C34.2768 26.7566 33.9855 26.7566 33.7556 26.7566H32.7513C32.3987 26.7566 32.0384 26.7566 31.6781 26.7566C31.3178 26.7566 31.1798 26.7566 30.9115 26.7566C30.9115 24.8095 30.8732 22.824 30.8426 20.9076C30.7506 19.3207 30.7506 17.7416 30.7046 16.1548ZM10.9037 13.7707V13.8933C10.9037 14.315 10.9037 14.7519 10.5587 14.9589C10.1571 15.1183 9.72506 15.1864 9.29388 15.1582H6.15855C5.03934 15.1582 4.96268 14.8286 4.97034 13.8627L10.9037 13.7707ZM36.017 29.1024C36.017 29.2403 36.017 29.3707 36.017 29.4856C36.017 30.3519 36.017 31.2258 36.017 32.0997V32.9966H35.833C35.3577 32.9966 34.8671 32.9966 34.3918 33.0733C33.9165 33.1499 33.5716 33.1346 33.2266 33.1346H29.9686C29.9686 32.0384 29.9686 30.9422 29.9686 29.8459V29.455C29.9686 29.3323 29.9686 29.2097 29.9686 29.0794C29.9686 28.5734 29.9073 28.0445 30.3519 27.8068C30.5118 27.7509 30.6812 27.7274 30.8502 27.7378H31.6475L33.242 27.6842C33.4807 27.6752 33.7188 27.6522 33.9549 27.6152C34.3308 27.5598 34.7096 27.5266 35.0894 27.5155C35.2766 27.5053 35.464 27.5313 35.6414 27.5922C36.1166 27.8222 36.0553 28.5198 36.017 29.087V29.1024ZM35.9097 13.9087C35.9097 14.3303 35.9097 14.7672 35.5724 14.9742C35.1708 15.1336 34.7387 15.2017 34.3075 15.1735H31.1722C30.5742 15.1735 30.2753 15.0662 30.1296 14.8516C29.9794 14.5016 29.9289 14.1169 29.984 13.74H32.4294C33.3339 13.74 34.2385 13.74 35.1354 13.74H35.902L35.9097 13.9087Z" fill="#333333"/>
<path d="M22.1342 3.97374C21.5677 3.74098 20.9604 3.6237 20.348 3.62878C19.4741 3.5838 18.6087 3.82008 17.8789 4.30295C17.149 4.78583 16.5932 5.48988 16.2928 6.31182C16.1229 6.84816 16.0641 7.41352 16.12 7.97335C16.1759 8.53319 16.3453 9.07576 16.6179 9.56791C16.8905 10.0601 17.2606 10.4915 17.7056 10.8358C18.1505 11.1801 18.661 11.4302 19.2058 11.5706C19.6566 11.6683 20.1167 11.7171 20.578 11.7162C22.5788 11.7162 24.0813 10.7503 24.5872 9.12518C24.9019 8.1154 24.8242 7.02405 24.3694 6.06911C23.9147 5.11416 23.1165 4.36589 22.1342 3.97374ZM19.4434 10.6813C18.6707 10.4688 18.0031 9.97955 17.5677 9.30669C17.1324 8.63384 16.9596 7.82437 17.0824 7.0324C17.251 5.33059 18.8838 4.55634 20.3403 4.55634C20.9844 4.54949 21.6198 4.70504 22.1878 5.00863C22.8561 5.37242 23.3755 5.95912 23.6557 6.66652C23.9358 7.37392 23.9589 8.15718 23.721 8.87987C23.4898 9.49171 23.0652 10.0114 22.5118 10.36C21.9584 10.7087 21.3064 10.8672 20.6546 10.8117C20.2473 10.8139 19.841 10.7702 19.4434 10.6813Z" fill="#333333"/>
<path d="M8.94892 8.55024C8.86494 8.55148 8.78286 8.57531 8.71127 8.61923C7.42341 9.38582 6.14322 10.2444 4.87836 11.0876C4.79374 11.1433 4.72985 11.2252 4.69658 11.3209C4.66332 11.4165 4.66254 11.5205 4.69437 11.6166C4.71936 11.7098 4.77256 11.7929 4.84667 11.8547C4.92078 11.9164 5.01217 11.9538 5.10833 11.9615C5.19684 11.9594 5.28252 11.9299 5.35364 11.8772C6.60317 11.0263 7.89103 10.1984 9.18656 9.40882C9.27415 9.36157 9.3422 9.28487 9.37868 9.19227C9.41515 9.09968 9.4177 8.99716 9.38587 8.90287C9.36342 8.80346 9.30805 8.71455 9.22874 8.65054C9.14943 8.58654 9.05083 8.5512 8.94892 8.55024Z" fill="#333333"/>
<path d="M10.3671 7.61501C10.3035 7.61226 10.2402 7.62394 10.1817 7.64917C10.1233 7.67439 10.0714 7.71251 10.0298 7.76066C9.95857 7.84977 9.92063 7.9609 9.92248 8.07496C9.92458 8.16283 9.95223 8.24818 10.0021 8.32058C10.0519 8.39298 10.1217 8.44929 10.2031 8.48263C10.2844 8.51597 10.3737 8.5249 10.46 8.50832C10.5463 8.49173 10.6259 8.45036 10.6891 8.38926C10.7592 8.29956 10.797 8.18882 10.7964 8.07496C10.7995 8.01631 10.7907 7.95764 10.7706 7.90246C10.7506 7.84727 10.7195 7.7967 10.6795 7.75377C10.6394 7.71084 10.5911 7.67642 10.5374 7.65258C10.4837 7.62874 10.4258 7.61596 10.3671 7.61501Z" fill="#333333"/>
</svg>
